<svg width="723" height="692" viewBox="0 0 723 692" fill="none" xmlns="http://www.w3.org/2000/svg">
<path d="M620.944 463.961C596.909 500.419 555.7 521.85 512.032 521.85H149.591C76.741 521.85 35.89 436.673 83.136 388.711C130.381 340.748 88.6504 299.785 161.524 261.324C232.124 224.063 256.228 303.488 321.266 251.518C386.306 199.549 480.995 204.452 501.799 257.402C522.602 310.352 517.701 328.986 561.825 340.751C605.95 352.516 649.094 419.193 622.619 461.357C622.068 462.236 621.509 463.104 620.944 463.961Z" fill="#CBD5FC"/>
<path d="M604.831 478.741C566.649 481.98 540.91 553.55 445.461 510.532C445.461 510.532 455.942 479.288 502.893 459.813C549.842 440.338 604.831 478.741 604.831 478.741Z" fill="#C8DDF5"/>
<path d="M458.496 505.173C468.461 499.992 478.797 495.525 489.353 491.64C491.979 490.631 494.642 489.723 497.314 488.838C499.974 487.917 502.668 487.101 505.358 486.269C508.038 485.405 510.767 484.703 513.486 483.966C514.846 483.604 516.202 483.22 517.569 482.877L521.679 481.891L525.8 480.946L529.95 480.129L534.101 479.314C535.485 479.049 536.882 478.843 538.276 478.63C541.068 478.219 543.848 477.75 546.66 477.481C549.468 477.19 552.26 476.785 555.085 476.68C566.329 475.864 577.699 476.048 588.786 477.925C577.555 477.653 566.42 478.318 555.377 479.679L553.304 479.914L551.242 480.231L547.113 480.834C544.357 481.187 541.627 481.74 538.891 482.235C537.526 482.502 536.149 482.694 534.786 482.977L530.701 483.825L526.617 484.675L522.557 485.648L518.488 486.578C517.134 486.902 515.791 487.269 514.442 487.611L510.397 488.657C509.047 488.999 507.718 489.417 506.37 489.771C503.682 490.508 500.99 491.229 498.327 492.058C495.66 492.869 492.975 493.629 490.318 494.482C479.659 497.802 469.095 501.457 458.496 505.173Z" fill="#ACBED3"/>
<path d="M609.504 356.944C562.916 390.246 584.467 501.847 428.996 519.42C428.996 519.42 418.617 471.276 464.08 410.422C509.543 349.568 609.504 356.944 609.504 356.944Z" fill="#6C83DC"/>
<path d="M439.34 505.975C446.121 491.284 454.49 477.312 463.906 464.087C473.294 450.834 483.821 438.364 495.286 426.814C506.766 415.286 519.204 404.654 532.664 395.477C546.082 386.303 560.558 378.409 575.999 373.491C561.668 381.005 548.389 389.937 535.776 399.733C523.211 409.583 511.329 420.266 500.073 431.581C488.807 442.892 478.192 454.848 468.088 467.264C458.017 479.713 448.55 492.671 439.34 505.975Z" fill="#C8DDF5"/>
<path d="M106.941 468.794C144.801 474.713 165.435 547.918 263.677 511.728C263.677 511.728 255.422 479.824 209.96 457.092C164.497 434.358 106.941 468.794 106.941 468.794Z" fill="#C8DDF5"/>
<path d="M251.053 505.465C240.742 501.014 230.461 496.623 220.063 492.559C217.472 491.522 214.848 490.575 212.245 489.578C209.647 488.563 207.01 487.655 204.383 486.731C203.063 486.283 201.767 485.772 200.444 485.336L196.483 484.008C195.162 483.571 193.847 483.111 192.52 482.692L188.527 481.477L184.545 480.221L180.53 479.086L176.515 477.952C175.176 477.573 173.816 477.285 172.474 476.922C169.779 476.236 167.095 475.492 164.37 474.946L160.294 474.053L158.258 473.592L156.209 473.213C145.288 471.076 134.227 469.629 123.006 469.109C134.197 468.02 145.552 468.635 156.711 470.241C159.521 470.545 162.278 471.145 165.058 471.634C167.844 472.101 170.584 472.764 173.34 473.371C174.716 473.68 176.094 473.984 177.457 474.345L181.539 475.451L185.622 476.558L189.666 477.791L193.697 479.065C195.036 479.502 196.361 479.982 197.693 480.438C200.354 481.365 203.025 482.259 205.639 483.308C208.264 484.328 210.894 485.331 213.482 486.438C216.084 487.508 218.677 488.601 221.226 489.793C231.482 494.412 241.478 499.595 251.053 505.465Z" fill="#ACBED3"/>
<path d="M132.107 351.819C174.059 386.519 146.149 490.911 292.412 517.984C292.412 517.984 305.478 473.023 266.438 412.27C227.398 351.516 132.107 351.819 132.107 351.819Z" fill="#6C83DC"/>
<path d="M283.504 504.542C275.599 491.338 267.46 478.439 258.724 465.977C249.954 453.546 240.685 441.509 230.764 430.033C220.852 418.555 210.312 407.629 199.078 397.431C187.795 387.284 175.831 377.9 162.775 369.754C177.12 375.39 190.351 383.821 202.482 393.406C214.657 402.995 225.754 413.909 235.874 425.617C245.978 437.342 255.123 449.887 263.12 463.102C271.147 476.293 278.119 490.125 283.504 504.542Z" fill="#C8DDF5"/>
<path d="M378.819 449.003C373.567 455.24 368.808 465.579 365.854 467.221C362.9 468.862 357.919 469.432 353.211 484.584C348.504 499.734 372.268 497.66 372.268 497.66C372.268 497.66 382.43 491.824 386.533 477.725L396.708 468.697L378.819 449.003Z" fill="#FFA498"/>
<path d="M360.437 495.999C360.437 495.999 368.129 493.494 374.653 486.604C381.202 479.687 382.046 467.38 382.046 467.38L385.182 473.241L391.456 466.536L394.48 466.244L396.71 468.698L386.534 477.725C382.431 491.824 372.27 497.661 372.27 497.661C372.27 497.661 365.719 498.228 360.178 496.578C360.32 496.22 360.437 495.999 360.437 495.999Z" fill="#C57E75"/>
<path d="M414.448 394.739C407.169 400.06 402.826 403.921 399.207 411.159C395.587 418.398 372.905 444.405 371.458 446.724C370.009 449.043 384.205 473.655 395.566 479.688C395.566 479.688 412.719 459.9 422.612 452.421C432.505 444.94 429.128 418.398 424.543 409.47C419.958 400.542 414.448 394.739 414.448 394.739Z" fill="#DC466F"/>
<path d="M414.183 442.629V427.856C414.183 427.856 416.108 427.085 417.611 432.071C418.21 434.066 418.165 436.163 417.897 437.969L428.941 429.664C429.397 438.961 427.905 448.419 422.612 452.421C412.719 459.9 395.567 479.687 395.567 479.687C392.635 478.131 389.516 475.334 386.525 472.006C393.51 465.052 406.761 451.627 414.183 442.629Z" fill="#D12050"/>
<path d="M343.618 491.824C341.729 492.413 340.334 493.316 340.334 495.695C340.334 498.076 340.744 501.85 341.647 503.327C342.55 504.804 347.21 505.689 347.21 505.689C347.21 505.689 346.899 495.86 345.914 494.054C344.929 492.249 343.618 491.824 343.618 491.824Z" fill="#FFA498"/>
<path d="M341.646 503.328C341.393 502.913 341.181 502.306 341.004 501.609C342.015 502.603 342.355 502.611 343.593 502.741L347.132 503.845C347.186 504.951 347.21 505.69 347.21 505.69C347.21 505.69 342.549 504.805 341.646 503.328Z" fill="#C57E75"/>
<path d="M348.13 488.228C345.832 488.475 343.534 490.198 343.534 492.577C343.534 494.957 342.715 501.605 343.534 502.671C344.356 503.737 348.377 506.774 349.771 507.02C351.166 507.266 353.536 506.856 353.212 506.117C352.89 505.379 348.13 488.228 348.13 488.228Z" fill="#FFA498"/>
<path d="M343.186 500.885C344.927 502.851 349.382 502.675 349.382 502.675C349.382 502.675 351.34 504.766 351.582 505.438C351.727 505.843 352.529 506.377 352.638 506.791C351.903 507.071 350.645 507.176 349.771 507.021C348.402 506.779 344.519 503.861 343.594 502.741L343.186 500.89V500.885Z" fill="#C57E75"/>
<path d="M356.74 484.303C349.69 484.701 348.377 485.357 348.131 488.229C347.884 491.101 348.049 499.471 348.95 501.606C349.854 503.738 350.346 505.626 351.495 506.775C352.644 507.923 354.363 507.928 354.363 507.928C354.363 507.928 358.224 502.262 358.388 497.502C358.552 492.743 356.74 484.303 356.74 484.303Z" fill="#FFA498"/>
<path d="M352.685 503.213C353.043 501.264 353.836 499.186 353.936 492.663C353.974 490.213 356.246 503.009 355.232 506.521C354.726 507.393 354.363 507.928 354.363 507.928C354.363 507.928 352.645 507.923 351.496 506.774C350.347 505.625 349.855 503.737 348.951 501.605C348.893 501.465 348.838 501.298 348.785 501.11C349.245 502.307 350.706 503.092 352.685 503.213Z" fill="#C57E75"/>
<path d="M372.173 498.732C371.73 502.654 366.593 504.066 366.018 506.035C365.445 508.005 365.854 509.81 364.87 510.302C363.885 510.795 359.782 508.497 359.947 505.872C359.947 505.872 358.879 508.087 356.499 508.497C354.12 508.908 353.545 507.17 353.956 504.551C354.366 501.932 354.285 500.537 354.202 497.419C354.12 494.301 353.381 491.429 354.776 487.982C356.171 484.536 358.059 481.5 361.834 482.075C365.608 482.648 367.906 487.408 369.957 489.05C372.009 490.69 372.665 494.383 372.173 498.732Z" fill="#FFA498"/>
<path d="M359.947 505.871C360.177 500.884 360.437 496.803 360.437 495.998C360.437 495.193 360.177 489.901 362.059 489.579C362.344 489.53 366.482 492.152 366.562 493.922C366.643 495.691 366.562 498.869 365.276 499.774C363.989 500.679 359.947 505.871 359.947 505.871Z" fill="#C57E75"/>
<path d="M530.952 405.368C523.472 395.877 520.898 394.912 513.177 390.408C505.455 385.904 476.178 374.482 470.145 373.034C464.114 371.586 439.784 382.928 431.8 386.547C423.818 390.166 413.659 393.727 411.929 397.255C406.134 409.063 417.61 425.797 417.67 460.866C417.702 479.232 421.887 520.535 421.887 520.535C421.887 520.535 513.82 520.707 515.107 518.776C516.394 516.846 519.612 450.892 521.22 437.38C522.829 423.867 530.952 405.368 530.952 405.368Z" fill="#DC466F"/>
<path d="M412.267 415.743C411.578 413.523 411.169 411.262 410.824 408.992C410.51 406.718 410.262 404.434 410.296 402.11C410.987 404.329 411.397 406.59 411.738 408.86C412.052 411.135 412.299 413.418 412.267 415.743Z" fill="#D12050"/>
<path d="M446.645 401.929C443.093 400.603 434.678 402.911 433.139 403.446C431.601 403.981 434.044 397.405 434.949 396.591C435.853 395.776 437.302 393.88 440.077 394.739C442.852 395.596 445.184 398.773 445.586 399.819C445.988 400.864 446.645 401.929 446.645 401.929Z" fill="#D12050"/>
<path d="M476.24 407.419C474.974 407.359 467.583 403.96 465.815 403.116C464.045 402.271 456.029 401.877 450.646 403.381C450.646 403.381 461.009 396.38 467.041 396.44C473.073 396.501 475.366 398.671 475.848 400.603C476.331 402.533 476.24 407.419 476.24 407.419Z" fill="#D12050"/>
<path d="M436.72 505.746C437.707 504.781 497.747 506.712 498.954 500.438C500.159 494.165 500.99 482.754 500.99 482.754C493.762 486.616 483.269 485.008 483.269 485.008C490.266 482.723 500.401 471.241 500.883 467.863C502.371 457.456 496.81 428.765 496.81 428.765L500.883 420.569L505.65 417.915C505.65 417.915 514.687 422.415 522.414 430.694C521.893 432.986 521.475 435.244 521.221 437.38C519.705 450.12 516.758 509.463 515.348 517.829C496.752 518.514 463.041 519.749 440.485 520.523C429.556 520.55 421.887 520.535 421.887 520.535C421.887 520.535 421.747 515.103 421.418 507.312C427.71 506.944 436.109 506.344 436.72 505.746Z" fill="#D12050"/>
<path d="M448.912 403.678C455.39 402.897 465.802 397.284 469.905 399.214C474.007 401.144 474.971 406.091 475.816 406.935C476.66 407.78 480.28 403.557 480.28 393.182C480.28 382.806 480.598 372.182 472.959 370.738C465.32 369.293 445.534 376.774 441.552 379.79C437.572 382.806 435.882 385.861 434.797 388.798C433.71 391.733 430.815 403.557 432.142 403.678C433.469 403.799 437.209 396.077 439.984 395.836C442.759 395.595 447.158 403.89 448.912 403.678Z" fill="#DC466F"/>
<path d="M445.227 394.39C443.575 390.469 441.766 387.03 441.826 384.316C441.887 381.601 442.489 379.731 445.506 378.887C448.521 378.042 449.789 379.67 449.97 383.773C450.15 387.875 445.227 394.39 445.227 394.39Z" fill="#D12050"/>
<path d="M468.879 387.079C475.185 381.36 475.899 374.965 475.307 373.638C474.714 372.311 472.11 371.345 472.11 371.345C472.11 371.345 471.085 375.508 471.688 376.533C472.29 377.558 468.879 387.079 468.879 387.079Z" fill="#D12050"/>
<path d="M458.84 400.908C460.376 400.218 461.98 399.68 463.615 399.236C465.258 398.837 466.945 398.518 468.699 398.631C469.564 398.696 470.493 398.886 471.267 399.497C471.95 400.141 472.468 400.723 473.048 401.385C474.197 402.69 474.989 404.273 475.717 405.763C475.877 406.106 476.132 406.51 476.243 406.546C476.257 406.55 476.251 406.571 476.381 406.49C476.49 406.413 476.617 406.281 476.732 406.137C477.203 405.536 477.588 404.784 477.964 404.053C478.723 402.609 479.131 401.008 479.454 399.378C479.768 397.746 479.95 396.081 480.067 394.412C480.21 392.743 480.258 391.065 480.28 389.381C480.612 392.732 480.618 396.125 480.153 399.495C479.928 401.175 479.507 402.873 478.748 404.439C478.374 405.207 477.993 405.965 477.439 406.7C477.292 406.882 477.134 407.065 476.901 407.234C476.789 407.318 476.636 407.397 476.453 407.441C476.262 407.486 476.032 407.456 475.861 407.374C475.515 407.202 475.369 406.97 475.229 406.773C475.096 406.57 474.99 406.373 474.892 406.179C474.162 404.65 473.438 403.191 472.376 401.944C471.868 401.326 471.272 400.645 470.749 400.119C470.202 399.664 469.42 399.437 468.629 399.338C467.023 399.148 465.345 399.371 463.713 399.677C462.067 399.967 460.449 400.415 458.84 400.908Z" fill="#D12050"/>
<path d="M443.985 398.744C443.285 398.125 442.59 397.507 441.832 396.993C441.458 396.736 441.074 396.49 440.679 396.321C440.479 396.245 440.287 396.186 440.107 396.162C440.027 396.171 439.942 396.163 439.879 396.184C439.82 396.222 439.785 396.207 439.671 396.292C438.115 397.251 436.905 398.569 435.877 400.077C435.354 400.805 434.896 401.638 434.28 402.393C433.971 402.767 433.644 403.13 433.227 403.453C433.01 403.603 432.79 403.778 432.401 403.824C432.215 403.856 431.954 403.775 431.797 403.635C431.639 403.492 431.56 403.327 431.514 403.188C431.344 402.616 431.399 402.141 431.444 401.657C431.503 401.181 431.587 400.715 431.695 400.257C431.926 399.343 432.182 398.446 432.509 397.569C432.384 398.495 432.218 399.41 432.142 400.332C432.09 400.789 432.055 401.246 432.048 401.696C432.046 402.134 432.055 402.615 432.187 402.928C432.216 403.007 432.261 403.049 432.276 403.06C432.299 403.058 432.276 403.068 432.322 403.054C432.4 403.046 432.582 402.942 432.729 402.814C433.036 402.553 433.326 402.211 433.591 401.853C434.135 401.152 434.571 400.344 435.117 399.551C435.666 398.776 436.267 398.025 436.964 397.356C437.661 396.689 438.468 396.117 439.301 395.676C439.378 395.623 439.572 395.553 439.73 395.508C439.889 395.477 440.045 395.494 440.194 395.503C440.474 395.56 440.717 395.66 440.942 395.779C441.38 396.028 441.754 396.327 442.112 396.642C442.802 397.294 443.438 397.984 443.985 398.744Z" fill="#D12050"/>
<path d="M444.342 370.822C444.356 373.371 444.458 375.913 444.722 378.449C445.373 384.67 444.736 392.875 445.228 394.389C445.777 396.078 449.034 402.11 449.034 402.11C449.034 402.11 454.825 399.456 457.238 396.561C459.65 393.666 462.787 393.518 467.01 389.248C471.234 384.978 474.104 378.196 473.163 372.552C473.043 371.828 472.302 364.602 472.137 357.122C471.974 349.642 464.114 343.958 456.635 343.958C449.155 343.958 444.676 355.058 444.442 362.538C444.346 365.607 444.329 368.491 444.342 370.822Z" fill="#FFA498"/>
<path d="M472.137 357.122C472.302 364.603 473.042 371.828 473.163 372.552C473.454 374.297 473.379 376.152 473.013 378.006C471.358 378.311 450.056 378.825 444.536 376.255C444.41 374.448 444.353 372.637 444.342 370.822C444.329 368.491 444.346 365.608 444.442 362.538C444.542 359.368 445.406 355.548 446.936 352.198L464.46 345.987C468.762 348.282 472.033 352.328 472.137 357.122Z" fill="#C57E75"/>
<path d="M431.218 325.975C419.899 325.975 415.664 334.67 415.664 341.185C415.664 347.034 417.538 356.396 431.218 356.396C438.058 356.396 442.689 349.586 442.689 341.185C442.689 332.785 438.058 325.975 431.218 325.975Z" fill="#524787"/>
<path d="M430.72 329.7C422.173 329.7 418.975 336.265 418.975 341.186C418.975 345.601 420.389 352.672 430.72 352.672C435.886 352.672 439.382 347.53 439.382 341.186C439.382 334.842 435.886 329.7 430.72 329.7Z" fill="#38295C"/>
<path d="M416.939 331.108C417.607 335.074 419.571 336.591 420.448 341.937C421.324 347.283 418.986 355.053 422.473 361.819C425.961 368.587 431.6 377.483 434.858 377.859C438.116 378.235 464.21 373.827 473.015 356.319C475.542 351.293 480.944 331.585 476.322 319.552C471.699 307.519 464.18 296.492 446.804 296.157C429.428 295.823 413.395 310.089 416.939 331.108Z" fill="#FFA498"/>
<path d="M431.472 352.788C432.401 352.809 433.419 352.456 433.878 351.847C434.279 351.314 434.446 350.612 434.327 349.956C432.969 351.075 431.303 351.267 429.632 350.976C429.425 352.223 430.387 352.762 431.472 352.788Z" fill="#C57E75"/>
<path d="M462.21 331.108C461.548 326.984 458.792 324.603 458.792 324.603C458.792 324.603 452.15 321.845 447.013 321.345C441.874 320.844 436.611 319.339 436.611 319.339C436.611 319.339 438.241 323.465 440.998 325.223C440.998 325.223 428.717 324.603 424.832 320.968C424.832 320.968 425.584 323.964 426.336 325.975C426.336 325.975 420.321 325.354 418.442 322.974C418.442 322.974 416.938 328.216 416.938 331.108C416.938 331.108 409.712 321.219 411.55 313.367C413.387 305.514 415.893 302.506 415.893 302.506C415.893 302.506 410.714 303.007 407.873 302.506C407.873 302.506 414.557 296.658 419.57 292.816C424.582 288.972 439.619 288.806 439.619 288.806C439.619 288.806 438.449 284.796 439.785 278.447C439.785 278.447 446.218 287.887 453.027 290.768C459.836 293.65 458.918 293.406 466.138 295.228C473.357 297.05 480.219 301.671 483.101 305.555C485.983 309.44 489.117 313.45 490.996 314.076C490.996 314.076 486.484 313.45 484.23 311.57C484.23 311.57 487.99 320.113 483.019 331.108C478.048 342.104 465.593 338.851 463.177 336.423C460.763 333.996 462.21 331.108 462.21 331.108Z" fill="#4375F1"/>
<path d="M463.178 336.424C460.763 333.996 462.21 331.109 462.21 331.109C461.811 328.613 460.645 326.761 459.786 325.683C461.593 314.725 460.856 303.352 457.646 292.719C459.522 293.482 460.636 293.824 463.351 294.521C466.685 299.536 469.178 305.178 470.895 310.893C473.081 318.17 474.139 326.031 472.1 333.352C471.578 335.229 470.815 337.059 469.851 338.773C466.76 338.515 464.152 337.403 463.178 336.424Z" fill="#9A4234"/>
<path d="M466.581 327.025C466.581 327.025 467.44 299.541 453.029 290.769C453.029 290.769 464.181 289.516 470.572 300.669C476.963 311.821 476.531 321.387 476.37 326.748C476.209 332.108 466.581 327.025 466.581 327.025Z" fill="#524787"/>
<path d="M470.974 325.975C482.293 325.975 486.529 334.67 486.529 341.185C486.529 347.034 484.654 356.396 470.974 356.396C464.134 356.396 459.504 349.586 459.504 341.185C459.504 332.785 464.134 325.975 470.974 325.975Z" fill="#524787"/>
<path d="M464.871 341.186C464.871 333.729 469.794 327.683 475.867 327.683C481.939 327.683 486.528 333.729 486.528 341.186C486.528 348.644 481.939 354.689 475.867 354.689C469.794 354.689 464.871 348.644 464.871 341.186Z" fill="#C22373"/>
<path d="M469.836 341.185C469.836 336.109 473.185 331.996 477.318 331.996C481.451 331.996 484.801 336.109 484.801 341.185C484.801 346.26 481.451 350.374 477.318 350.374C473.185 350.374 469.836 346.26 469.836 341.185Z" fill="#D67AA8"/>
<path d="M442.284 356.396C439.225 358.079 429.234 358.642 428.555 358.548C427.875 358.454 429.27 366.04 431.717 366.32C434.164 366.602 439.058 365.947 441.097 363.982C443.135 362.017 442.284 356.396 442.284 356.396Z" fill="#C57E75"/>
<path d="M440.936 338.262C440.936 336.878 441.618 335.756 442.46 335.756C443.303 335.756 443.986 336.878 443.986 338.262C443.986 339.646 443.303 340.768 442.46 340.768C441.618 340.768 440.936 339.646 440.936 338.262Z" fill="#471052"/>
<path d="M423.49 339.431C423.49 338.046 424.077 336.925 424.801 336.925C425.525 336.925 426.112 338.046 426.112 339.431C426.112 340.815 425.525 341.937 424.801 341.937C424.077 341.937 423.49 340.815 423.49 339.431Z" fill="#471052"/>
<path d="M449.472 328.491C448.431 327.917 447.308 327.522 446.158 327.191C445.002 326.881 443.802 326.699 442.586 326.655C441.376 326.595 440.096 326.561 438.925 327.014C437.75 327.418 436.685 328.157 435.9 329.129L435.989 329.278C437.249 329.142 438.288 328.834 439.386 328.688C440.459 328.527 441.5 328.135 442.621 328.045C444.839 327.856 447.165 328.032 449.402 328.65L449.472 328.491Z" fill="#471052"/>
<path d="M419.081 331.729C419.625 331.519 420.197 331.387 420.766 331.321C421.334 331.244 421.902 331.217 422.464 331.21C423.03 331.202 423.594 331.404 424.145 331.269C424.424 331.207 424.709 331.153 424.999 331.032C425.292 330.932 425.59 330.803 425.911 330.578L425.929 330.405C425.383 329.873 424.766 329.646 424.14 329.532C423.507 329.413 422.88 329.667 422.272 329.833C421.661 329.993 421.063 330.207 420.499 330.494C419.947 330.801 419.405 331.122 418.975 331.594L419.081 331.729Z" fill="#471052"/>
<path d="M436.719 511.694C436.727 512.082 436.183 512.643 434.857 512.643H393.011C388.186 512.643 387.06 510.735 388.508 508.322C389.956 505.908 396.069 500.599 411.189 496.899C426.31 493.2 434.261 501.851 436.719 505.747C438.522 508.605 436.719 511.694 436.719 511.694Z" fill="#524787"/>
<path d="M388.153 509.045C388.985 511.813 420.914 510.37 420.914 510.37C420.914 510.37 417.676 505.996 414.098 505.871C410.518 505.747 408.777 506.99 403.978 507.817C399.178 508.642 402.736 505.863 402.736 505.863C402.736 505.863 399.345 505.112 397.965 504.042C397.965 504.042 405.874 501.705 409.192 501.162C412.508 500.619 420.955 500.981 422.04 501.162C422.808 501.289 426.706 499.026 431.414 500.163C434.044 502.084 435.783 504.26 436.721 505.747C438.524 508.604 436.721 511.693 436.721 511.693C436.727 512.081 436.184 512.643 434.858 512.643H393.013C388.683 512.643 387.339 511.104 388.153 509.045Z" fill="#38295C"/>
<path d="M524.72 485.531C524.72 485.531 494.963 490.132 478.833 493.019C463.554 495.753 450.36 496.94 446.621 496.215C442.88 495.491 430.091 490.786 425.989 489.097C421.887 487.408 413.683 486.443 409.461 487.77C405.238 489.097 401.779 490.545 400.09 490.545C398.402 490.545 398.723 493.28 400.975 493.843C403.228 494.406 405.238 494.326 405.238 494.326C405.238 494.326 397.597 498.508 396.229 498.91C394.863 499.312 396.483 501.805 398.332 501.644C398.332 501.644 396.713 502.61 397.275 503.574C397.839 504.54 401.859 504.54 401.859 504.54C401.859 504.54 396.954 506.954 401.056 507.918C405.158 508.883 410.064 504.299 412.075 503.897C414.086 503.494 418.75 503.736 421.003 505.425C423.255 507.113 432.907 514.917 446.097 510.251C446.097 510.251 535.63 513.879 544.557 513.879C553.485 513.879 558.877 505.989 556.014 490.786C553.152 475.585 547.602 464.244 547.602 464.244L516.716 466.416L524.72 485.531Z" fill="#FFA498"/>
<path d="M412.287 491.909C413.075 491.723 413.704 491.615 414.097 491.59C414.097 491.59 413.333 491.723 412.287 491.909Z" fill="#C57E75"/>
<path d="M405.238 494.325C405.238 494.325 403.228 494.406 400.976 493.843C400.342 493.685 399.868 493.351 399.541 492.959C402.046 494.066 405.129 493.36 406.817 492.958C407.883 492.704 410.499 492.227 412.288 491.909C410.496 492.329 407.872 493.152 405.238 494.325Z" fill="#C57E75"/>
<path d="M405.633 497.944C405.826 497.857 405.989 497.788 406.095 497.756C406.095 497.756 405.921 497.826 405.633 497.944Z" fill="#C57E75"/>
<path d="M396.246 500.702C396.275 500.727 397.158 501.506 399.017 500.697C400.566 500.024 404.324 498.481 405.633 497.945C403.986 498.693 399.522 501.213 398.333 501.645C397.511 501.716 396.736 501.262 396.246 500.702Z" fill="#C57E75"/>
<path d="M400.867 503.656C402.234 503.253 405.09 501.523 406.839 500.697C408.588 499.87 410.82 499.775 410.82 499.775C410.82 499.775 410.157 499.835 408.407 500.697C406.659 501.559 401.86 504.54 401.86 504.54C401.86 504.54 399.281 504.539 397.965 504.042C397.979 504.042 399.505 504.056 400.867 503.656Z" fill="#C57E75"/>
<path d="M426.324 505.626C428.856 507.195 436.337 509.246 440.801 508.401C445.265 507.557 446.23 503.816 446.23 503.816L447.478 507.839C447.478 507.839 509.57 509.608 522.198 509.04C534.681 508.479 554.151 508.194 556.694 500.697C555.996 509.4 551.281 513.879 544.558 513.879C535.63 513.879 446.097 510.251 446.097 510.251C432.907 514.917 423.256 507.113 421.003 505.425C419.131 504.021 415.596 503.619 413.299 503.755H413.3C416.725 502.554 423.79 504.058 426.324 505.626Z" fill="#C57E75"/>
<path d="M524.72 485.53C524.72 485.53 536.353 483.949 538.685 483.708L536.916 476.47L522.197 479.446L524.72 485.53Z" fill="#C57E75"/>
<path d="M555.811 465.268C556.249 466.402 555.971 467.675 555.102 468.523C549.696 473.803 542.597 480.994 535.298 482.1C527.335 483.306 514.063 483.789 513.339 482.1C512.615 480.411 509.962 458.936 505.136 448.078C500.31 437.22 497.173 431.67 495.966 425.396C494.76 419.122 505.618 404.403 510.444 403.196C515.27 401.99 526.37 401.266 530.954 405.369C535.539 409.47 538.917 425.155 544.225 436.979C548.509 446.519 553.892 460.301 555.811 465.268Z" fill="#DC466F"/>
<path d="M525.944 402.986C524.466 402.815 522.989 402.693 521.509 402.66C520.032 402.601 518.555 402.605 517.085 402.692C515.616 402.781 514.153 402.929 512.713 403.187C511.989 403.303 511.279 403.47 510.567 403.63C509.905 403.871 509.222 404.047 508.612 404.428C507.963 404.719 507.399 405.178 506.804 405.575C506.262 406.053 505.683 406.487 505.187 407.023C504.127 408.02 503.234 409.19 502.328 410.345C501.444 411.52 500.642 412.761 499.88 414.028C499.095 415.283 498.398 416.591 497.719 417.914C498.716 415.107 500.094 412.438 501.747 409.934C502.588 408.693 503.5 407.487 504.567 406.407C505.067 405.837 505.682 405.373 506.248 404.863C506.88 404.429 507.474 403.939 508.183 403.611C508.847 403.209 509.614 403.005 510.351 402.754C511.09 402.599 511.825 402.422 512.572 402.326C514.063 402.113 515.564 401.971 517.064 401.985C520.058 401.978 523.051 402.269 525.944 402.986Z" fill="#D12050"/>
<path d="M549.787 469.713C549.747 465.857 541.606 430.512 534.414 410.812C537.472 417.544 540.329 428.298 544.225 436.977C548.509 446.518 553.892 460.3 555.812 465.266C556.249 466.4 555.971 467.674 555.102 468.523C553.032 470.544 550.711 472.846 548.228 474.979C548.415 474.798 549.824 473.313 549.787 469.713Z" fill="#D12050"/>
<path d="M161.657 429.895C161.51 431.084 161.758 432.282 162.336 433.333C164.442 437.162 165.509 441.562 165.371 445.931C165.28 448.81 164.688 451.755 165.473 454.527C166.825 459.308 171.871 462.265 173.496 466.962C174.935 471.125 173.597 476.361 176.588 479.594C177.33 480.395 178.482 481.008 179.496 480.603C180.004 480.399 180.386 479.974 180.748 479.562C184.179 475.666 187.852 470.93 186.794 465.848C185.8 461.073 180.879 457.847 179.946 453.059C179.185 449.148 181.184 444.636 178.943 441.341C178.325 440.431 177.439 439.736 176.764 438.869C174.098 435.447 175.086 429.992 172.015 426.929C171.014 425.93 169.761 425.363 168.395 425.071C165.176 424.383 162.06 426.626 161.657 429.894V429.895Z" fill="#D35E5A"/>
<path d="M181.166 490.562C181.372 488.016 181.46 485.468 181.555 482.914C181.439 480.367 181.303 477.82 181.085 475.274C180.867 472.729 180.581 470.184 180.13 467.654C179.673 465.14 179.069 462.571 178.012 460.207C176.164 455.536 174.671 450.651 173.162 445.81L170.973 438.513C170.074 436.129 169.196 433.74 168.348 431.334C168.72 433.866 169.299 436.35 169.807 438.854L172 446.167C173.518 451.033 174.998 455.888 176.891 460.675C177.914 462.964 178.48 465.386 178.935 467.866C179.376 470.343 179.658 472.857 179.875 475.377C180.087 477.899 180.235 480.43 180.332 482.964L181.166 490.562Z" fill="#FFA8A5"/>
<path d="M167.721 438.939C168.141 439.575 168.682 440.052 169.263 440.473C169.561 440.673 169.912 440.804 170.237 440.968C170.567 441.126 170.855 441.339 171.123 441.58L171.238 441.686L171.342 441.528C171.585 441.155 171.88 440.811 172.112 440.434C172.337 440.054 172.573 439.68 172.772 439.287C173.161 438.496 173.45 437.655 173.596 436.745L173.524 436.709C172.888 437.377 172.393 438.114 171.998 438.902C171.805 439.299 171.65 439.713 171.482 440.121C171.322 440.535 171.226 440.979 171.078 441.396L171.298 441.344C170.987 441.159 170.698 440.947 170.45 440.678C170.198 440.417 169.971 440.121 169.692 439.896C169.119 439.465 168.504 439.09 167.77 438.876L167.721 438.939Z" fill="#FFA8A5"/>
<path d="M168.34 447.646C168.778 448.007 169.229 448.396 169.702 448.723C170.173 449.056 170.653 449.379 171.171 449.637C171.695 449.89 172.251 450.088 172.755 450.374C173.262 450.654 173.724 451.007 174.175 451.374L174.335 451.503L174.496 451.292C175.193 450.377 175.791 449.405 176.355 448.415C176.886 447.404 177.358 446.362 177.697 445.244L177.627 445.204C176.845 446.073 176.196 447.015 175.604 447.99C175.046 448.984 174.521 449.998 174.098 451.068L174.418 450.986C173.889 450.741 173.369 450.481 172.892 450.152C172.413 449.828 171.984 449.42 171.522 449.066C171.055 448.721 170.545 448.442 170.024 448.182C169.497 447.93 168.974 447.684 168.357 447.568L168.34 447.646Z" fill="#FFA8A5"/>
<path d="M171.434 459.139C171.913 459.622 172.448 459.978 173 460.3C173.544 460.635 174.143 460.858 174.779 461.008C175.415 461.162 175.99 461.442 176.502 461.834C177.014 462.222 177.514 462.65 178.024 462.985L178.411 463.238L178.698 462.808C179.121 462.173 179.506 461.518 179.804 460.815C180.104 460.113 180.37 459.392 180.518 458.607L180.43 458.558C179.846 459.104 179.379 459.714 178.947 460.343C178.513 460.972 178.165 461.647 177.856 462.345L178.53 462.167C177.946 461.846 177.325 461.66 176.711 461.445C176.096 461.234 175.536 460.929 175.031 460.509C174.529 460.082 173.978 459.746 173.374 459.525C172.774 459.292 172.154 459.103 171.476 459.047L171.434 459.139Z" fill="#FFA8A5"/>
<path d="M185.218 491.06C187.209 490.733 194.671 488.345 194.151 486.397C191.913 478.033 189.676 468.544 197.423 464.453C201.151 462.484 205.83 461.484 207.953 457.841C210.14 454.09 208.53 449.321 206.568 445.448C204.605 441.573 202.243 437.427 203.084 433.167C203.965 428.707 208.184 425.414 208.858 420.917C209.779 414.777 203.817 409.83 198.09 407.433C196.142 406.618 194 405.921 191.947 406.417C190.481 406.77 189.209 407.711 188.204 408.835C184.181 413.334 184.345 420.122 185.263 426.086C186.181 432.052 187.587 438.35 185.34 443.953C183.744 447.93 180.328 451.673 181.243 455.86C181.609 457.538 182.655 459.002 183.054 460.672C184.129 465.173 180.39 469.23 178.675 473.529C176.464 479.077 177.982 485.856 182.175 490.066C182.972 490.866 184.102 491.243 185.218 491.06Z" fill="#FF7571"/>
<path d="M184.514 491.153C184.975 487.842 185.436 484.543 186.026 481.268C186.166 480.449 186.338 479.634 186.47 478.815C186.594 477.996 186.668 477.169 186.804 476.351C187.051 474.712 187.326 473.078 187.639 471.455C188.271 468.209 189.027 464.979 190.136 461.908C190.692 460.378 191.353 458.881 192.223 457.591C192.656 456.948 193.167 456.377 193.733 455.992C194.479 455.503 195.19 454.872 195.746 454.12C196.894 452.599 197.24 450.667 197.199 448.927C197.16 447.162 196.826 445.476 196.453 443.831C195.686 440.546 194.721 437.374 194.184 434.143C193.639 430.928 193.532 427.635 194.382 424.551C194.642 423.798 194.848 423.032 195.096 422.266C195.348 421.503 195.677 420.762 196.047 420.036C196.79 418.584 197.76 417.232 198.834 415.946C197.518 416.979 196.296 418.173 195.278 419.554C194.766 420.24 194.287 420.963 193.88 421.73C193.458 422.489 193.102 423.297 192.916 424.149C191.987 427.525 192.12 431.058 192.685 434.393C193.244 437.745 194.226 440.967 194.973 444.171C195.337 445.772 195.647 447.38 195.68 448.951C195.713 450.518 195.41 452.048 194.525 453.218C194.087 453.804 193.538 454.302 192.892 454.727C192.077 455.285 191.473 455.995 190.973 456.728C189.979 458.205 189.294 459.789 188.709 461.386C187.554 464.588 186.791 467.872 186.148 471.166C185.83 472.814 185.552 474.468 185.301 476.124C185.188 476.955 185.033 477.778 184.933 478.611C184.848 479.444 184.811 480.283 184.757 481.12C184.576 484.466 184.452 487.809 184.514 491.153Z" fill="#FFA8A5"/>
<path d="M197.735 425.868C197.162 426.067 196.681 426.402 196.236 426.757C195.795 427.12 195.374 427.504 195.063 427.99C194.749 428.472 194.469 428.981 194.066 429.378C193.679 429.788 193.212 430.122 192.763 430.482L193.353 430.519C193.154 430.09 192.909 429.689 192.684 429.277C192.451 428.871 192.218 428.465 191.944 428.087C191.685 427.699 191.389 427.335 191.109 426.963C190.826 426.59 190.507 426.246 190.25 425.851L190.15 425.868C190.129 426.39 190.286 426.874 190.446 427.33C190.621 427.784 190.816 428.225 191.051 428.64C191.271 429.066 191.55 429.452 191.832 429.834C192.123 430.212 192.4 430.595 192.734 430.945L193.103 431.333L193.324 430.982C193.626 430.503 193.918 430.005 194.295 429.588C194.655 429.156 195.146 428.845 195.61 428.513C196.077 428.184 196.445 427.765 196.806 427.338C197.164 426.904 197.498 426.459 197.798 425.946L197.735 425.868Z" fill="#FFA8A5"/>
<path d="M190.498 438.532C190.735 439.101 191.044 439.622 191.389 440.109C191.742 440.59 192.109 441.058 192.53 441.478C192.961 441.887 193.454 442.237 193.916 442.614C194.369 443.001 194.768 443.435 195.13 443.909L195.246 444.06L195.408 443.93C196.011 443.451 196.489 443.014 196.964 442.503C197.414 441.989 197.893 441.501 198.312 440.967C198.735 440.436 199.128 439.884 199.502 439.318C199.88 438.752 200.219 438.162 200.613 437.61L200.556 437.526C199.895 437.838 199.38 438.322 198.869 438.783C198.368 439.257 197.901 439.759 197.47 440.287C197.033 440.812 196.663 441.386 196.258 441.932C195.863 442.465 195.529 443.128 195.154 443.595L195.432 443.616C194.974 443.241 194.561 442.818 194.206 442.343C193.86 441.859 193.549 441.343 193.185 440.88C192.812 440.425 192.387 440.016 191.964 439.607C191.534 439.204 191.076 438.824 190.578 438.47L190.498 438.532Z" fill="#FFA8A5"/>
<path d="M203.807 448.309C203.178 449.047 202.527 449.727 201.861 450.375C201.192 451.026 200.475 451.595 199.777 452.22C199.065 452.826 198.258 453.367 197.344 453.634C196.438 453.92 195.476 453.956 194.548 453.946L194.964 454.238C194.8 453.456 194.558 452.719 194.302 451.975C194.049 451.231 193.728 450.508 193.34 449.819C192.955 449.127 192.499 448.466 191.961 447.869C191.413 447.289 190.78 446.744 190.023 446.473L189.973 446.56C190.545 447.079 190.987 447.677 191.371 448.317C191.761 448.95 192.09 449.621 192.416 450.295L193.347 452.351C193.653 453.04 193.923 453.757 194.191 454.454L194.32 454.791L194.606 454.747C195.593 454.591 196.53 454.257 197.446 453.935C198.351 453.582 199.281 453.272 200.171 452.816C201.071 452.376 201.828 451.694 202.463 450.934C203.097 450.173 203.615 449.307 203.897 448.354L203.807 448.309Z" fill="#FFA8A5"/>
<path d="M185.809 455.79C185.504 456.523 185.4 457.321 185.42 458.112C185.454 458.901 185.578 459.698 185.855 460.442C186.146 461.182 186.573 461.861 187.049 462.476L188.443 464.327L188.542 464.459L188.702 464.345C189.456 463.809 190.313 463.403 191.13 462.977C191.946 462.539 192.792 462.164 193.638 461.804C194.483 461.439 195.328 461.071 196.195 460.744C197.056 460.391 197.942 460.11 198.842 459.772L198.827 459.671C196.908 459.629 194.969 460.037 193.204 460.814C192.319 461.2 191.486 461.696 190.681 462.219C189.878 462.755 189.162 463.4 188.46 464.065L188.72 464.083C188.204 463.54 187.734 462.938 187.434 462.248C187.1 461.574 186.935 460.841 186.706 460.154C186.261 458.768 185.979 457.341 185.908 455.813L185.809 455.79Z" fill="#FFA8A5"/>
<path d="M171.687 512.642H192.991C194.968 512.642 196.649 510.932 196.947 508.619L200.319 482.412C200.689 479.546 198.813 476.963 196.364 476.963H168.315C165.865 476.963 163.99 479.546 164.359 482.412L167.732 508.619C168.029 510.932 169.71 512.642 171.687 512.642Z" fill="#524787"/>
<path d="M168.315 476.964H182.654C180.204 476.964 178.329 479.547 178.698 482.413L182.07 508.62C182.368 510.934 184.05 512.643 186.026 512.643H171.687C169.71 512.643 168.029 510.934 167.732 508.62L164.359 482.413C163.99 479.547 165.865 476.964 168.315 476.964Z" fill="#38295C"/>
<path d="M362.523 505.445H273.421C272.524 505.445 271.797 506.172 271.797 507.07V511.017C271.797 511.914 272.524 512.642 273.421 512.642H362.523V505.445Z" fill="#3A4278"/>
<path d="M385.452 510.409V512.013C385.452 512.361 385.171 512.642 384.824 512.642H362.379C361.681 512.642 361.115 512.076 361.115 511.378V506.701C361.115 505.947 361.772 505.36 362.522 505.445L384.894 509.786C385.212 509.822 385.452 510.09 385.452 510.409Z" fill="#524787"/>
<path d="M206.809 354.005H373.337C376.707 354.005 379.713 356.119 380.855 359.289L417.274 460.429C418.797 465.645 414.981 469.553 408.849 470.214C407.908 470.315 403.435 468.304 396.411 465H247.533C244.164 465 241.157 462.887 240.015 459.717L207.116 368.353C201.554 365.45 198.383 363.791 198.383 363.791C198.383 363.791 196.323 354.005 206.809 354.005Z" fill="#636A98"/>
<path d="M368.124 359.218H201.595C199.231 359.218 197.581 361.564 198.382 363.789L234.802 464.929C235.944 468.1 238.952 470.213 242.321 470.213H408.848C411.215 470.213 412.863 467.867 412.062 465.641L375.643 364.502C374.501 361.332 371.493 359.218 368.124 359.218Z" fill="#838BC0"/>
<path d="M330.53 470.214L323.138 442.797L295.121 470.214H330.53Z" fill="#261B41"/>
<path d="M368.246 453.384L366.105 447.436H368.797L370.938 453.384H368.246Z" fill="#261B41"/>
<path d="M362.578 453.384L360.438 447.436H363.129L365.27 453.384H362.578Z" fill="#261B41"/>
<path d="M356.91 453.384L354.77 447.436H357.461L359.603 453.384H356.91Z" fill="#261B41"/>
<path d="M351.242 453.384L349.102 447.436H351.793L353.934 453.384H351.242Z" fill="#261B41"/>
<path d="M270.729 453.384L268.588 447.436H271.279L273.421 453.384H270.729Z" fill="#261B41"/>
<path d="M265.061 453.384L262.92 447.436H265.612L267.752 453.384H265.061Z" fill="#261B41"/>
<path d="M259.392 453.384L257.25 447.436H259.942L262.083 453.384H259.392Z" fill="#261B41"/>
<path d="M253.723 453.384L251.582 447.436H254.274L256.415 453.384H253.723Z" fill="#261B41"/>
<path d="M274.296 502.868C275.939 498.143 295.867 433.84 295.867 433.84H321.447L323.137 442.796C323.137 442.796 305.986 498.143 304.343 502.868C304.217 503.228 304.098 503.589 303.986 503.951H303.988C302.485 508.571 306.451 508.551 310.916 508.551H356.03V512.642H310.916H280.871C271.831 512.642 272.652 507.592 274.296 502.868Z" fill="#636A98"/>
<path d="M321.447 433.84C321.447 433.84 301.519 498.143 299.876 502.868C298.232 507.592 297.411 512.642 306.45 512.642H276.403C267.364 512.642 268.186 507.592 269.83 502.868C271.473 498.143 291.4 433.84 291.4 433.84H321.447Z" fill="#838BC0"/>
<path d="M315.183 433.84C313.201 433.748 311.219 433.704 309.237 433.638C307.256 433.571 305.274 433.555 303.292 433.513C301.31 433.48 299.328 433.423 297.346 433.422L291.401 433.385L291.069 433.383L290.966 433.705C290.138 436.295 289.321 438.889 288.542 441.493L286.172 449.297C284.646 454.519 283.118 459.738 281.725 464.999C283.555 459.874 285.252 454.707 286.953 449.54L289.421 441.766C290.255 439.178 291.051 436.579 291.835 433.975L291.401 434.294L297.346 434.258C299.328 434.258 301.31 434.2 303.292 434.168C305.274 434.124 307.256 434.11 309.237 434.041C311.219 433.977 313.201 433.931 315.183 433.84Z" fill="#8475D5"/>
<path d="M140.916 528.429H581.982C586.342 528.429 589.875 524.894 589.875 520.535C589.875 516.176 586.342 512.642 581.982 512.642H140.916C136.557 512.642 133.023 516.176 133.023 520.535C133.023 524.894 136.557 528.429 140.916 528.429Z" fill="#A14F58"/>
<path d="M140.916 528.429H581.982C586.342 528.429 589.875 524.894 589.875 520.535H133.023C133.023 524.894 136.557 528.429 140.916 528.429Z" fill="#713349"/>
<path d="M232.879 273.789C232.879 310.455 203.156 340.179 166.49 340.179C129.824 340.179 100.1 310.455 100.1 273.789C100.1 237.123 129.824 207.399 166.49 207.399C203.156 207.399 232.879 237.123 232.879 273.789Z" fill="#AEBAEA"/>
<path d="M261.08 260.81C261.08 282.133 278.365 299.418 299.687 299.418C321.009 299.418 338.294 282.133 338.294 260.81C338.294 239.488 321.009 222.203 299.687 222.203C278.365 222.203 261.08 239.488 261.08 260.81Z" fill="#E6B851"/>
<path d="M280.64 275.924H318.733C320.481 275.924 321.899 274.506 321.899 272.758V248.863C321.899 247.114 320.481 245.697 318.733 245.697H280.64C278.892 245.697 277.475 247.114 277.475 248.863V272.758C277.475 274.506 278.892 275.924 280.64 275.924Z" fill="#6C83DC"/>
<path d="M280.64 275.924H318.733C320.481 275.924 321.899 274.506 321.899 272.758L299.687 258.79L277.475 272.758C277.475 274.506 278.892 275.924 280.64 275.924Z" fill="#C8DDF5"/>
<path d="M280.64 245.696H318.733C320.481 245.696 321.899 247.114 321.899 248.862L299.687 262.83L277.475 248.862C277.475 247.114 278.892 245.696 280.64 245.696Z" fill="#4371D7"/>
<path d="M534.791 316.366C534.791 337.688 552.075 354.974 573.398 354.974C594.72 354.974 612.005 337.688 612.005 316.366C612.005 295.044 594.72 277.759 573.398 277.759C552.075 277.759 534.791 295.044 534.791 316.366Z" fill="#E6B851"/>
<path d="M566.798 317.892C563.507 317.892 560.842 315.225 560.842 311.935C560.842 308.645 563.507 305.978 566.798 305.978C570.088 305.978 572.755 308.645 572.755 311.935C572.755 315.225 570.088 317.892 566.798 317.892ZM584.227 308.817H580.345C579.994 307.285 579.39 305.855 578.58 304.563L581.328 301.816C581.702 301.441 581.702 300.834 581.328 300.459L578.274 297.406C577.9 297.032 577.292 297.032 576.917 297.406L574.17 300.153C572.878 299.342 571.447 298.738 569.916 298.387V294.506C569.916 293.976 569.487 293.546 568.957 293.546H564.639C564.11 293.546 563.68 293.976 563.68 294.506V298.387C562.149 298.738 560.718 299.342 559.425 300.153L556.679 297.406C556.305 297.032 555.696 297.032 555.322 297.406L552.269 300.459C551.895 300.834 551.895 301.441 552.269 301.816L555.016 304.563C554.205 305.855 553.602 307.285 553.25 308.817H549.369C548.839 308.817 548.41 309.247 548.41 309.776V314.094C548.41 314.624 548.839 315.053 549.369 315.053H553.25C553.602 316.584 554.205 318.015 555.016 319.307L552.269 322.054C551.895 322.43 551.895 323.037 552.269 323.411L555.322 326.464C555.696 326.839 556.305 326.839 556.679 326.464L559.425 323.717C560.718 324.527 562.149 325.131 563.68 325.482V329.364C563.68 329.894 564.11 330.323 564.639 330.323H568.957C569.487 330.323 569.916 329.894 569.916 329.364V325.482C571.447 325.131 572.878 324.527 574.17 323.717L576.917 326.464C577.292 326.839 577.9 326.839 578.274 326.464L581.328 323.411C581.702 323.037 581.702 322.43 581.328 322.054L578.58 319.307C579.39 318.015 579.994 316.584 580.345 315.053H584.227C584.758 315.053 585.186 314.624 585.186 314.094V309.776C585.186 309.247 584.758 308.817 584.227 308.817Z" fill="#6C83DC"/>
<path d="M566.798 316.998C564.002 316.998 561.735 314.731 561.735 311.935C561.735 309.139 564.002 306.872 566.798 306.872C569.594 306.872 571.861 309.139 571.861 311.935C571.861 314.731 569.594 316.998 566.798 316.998ZM566.798 303.643C562.219 303.643 558.506 307.355 558.506 311.935C558.506 316.515 562.219 320.227 566.798 320.227C571.377 320.227 575.091 316.515 575.091 311.935C575.091 307.355 571.377 303.643 566.798 303.643Z" fill="#4371D7"/>
<path d="M591.902 330.456C590.221 330.456 588.858 329.094 588.858 327.413C588.858 325.733 590.221 324.371 591.902 324.371C593.582 324.371 594.945 325.733 594.945 327.413C594.945 329.094 593.582 330.456 591.902 330.456ZM600.806 325.82H598.822C598.644 325.038 598.335 324.307 597.921 323.647L599.324 322.244C599.515 322.052 599.515 321.742 599.324 321.551L597.765 319.991C597.574 319.8 597.263 319.8 597.072 319.991L595.667 321.394C595.008 320.98 594.277 320.672 593.495 320.493V318.51C593.495 318.239 593.275 318.02 593.004 318.02H590.799C590.528 318.02 590.308 318.239 590.308 318.51V320.493C589.527 320.672 588.796 320.98 588.136 321.394L586.732 319.991C586.54 319.8 586.23 319.8 586.038 319.991L584.48 321.551C584.288 321.742 584.288 322.052 584.48 322.244L585.882 323.647C585.469 324.307 585.16 325.038 584.981 325.82H582.998C582.727 325.82 582.508 326.04 582.508 326.31V328.516C582.508 328.786 582.727 329.006 582.998 329.006H584.981C585.16 329.788 585.469 330.519 585.882 331.18L584.48 332.583C584.288 332.774 584.288 333.085 584.48 333.276L586.038 334.836C586.23 335.027 586.54 335.027 586.732 334.836L588.136 333.432C588.796 333.846 589.527 334.155 590.308 334.334V336.317C590.308 336.588 590.528 336.808 590.799 336.808H593.004C593.275 336.808 593.495 336.588 593.495 336.317V334.334C594.277 334.155 595.008 333.846 595.667 333.432L597.072 334.836C597.263 335.027 597.574 335.027 597.765 334.836L599.324 333.276C599.515 333.085 599.515 332.774 599.324 332.583L597.921 331.18C598.335 330.519 598.644 329.788 598.822 329.006H600.806C601.076 329.006 601.295 328.786 601.295 328.516V326.31C601.295 326.04 601.076 325.82 600.806 325.82Z" fill="#6C83DC"/>
<path d="M591.903 330C590.473 330 589.315 328.842 589.315 327.414C589.315 325.984 590.473 324.827 591.903 324.827C593.331 324.827 594.489 325.984 594.489 327.414C594.489 328.842 593.331 330 591.903 330ZM591.903 323.177C589.563 323.177 587.666 325.073 587.666 327.414C587.666 329.752 589.563 331.649 591.903 331.649C594.241 331.649 596.138 329.752 596.138 327.414C596.138 325.073 594.241 323.177 591.903 323.177Z" fill="#4371D7"/>
<path d="M360.619 207.013C360.619 228.335 377.904 245.62 399.226 245.62C420.548 245.62 437.833 228.335 437.833 207.013C437.833 185.69 420.548 168.405 399.226 168.405C377.904 168.405 360.619 185.69 360.619 207.013Z" fill="#E3E4EB"/>
<path d="M377.016 196.817H421.441V191.92C421.441 190.234 420.074 188.867 418.388 188.867H380.069C378.382 188.867 377.016 190.234 377.016 191.92V196.817Z" fill="#4371D7"/>
<path d="M402.032 205.392H404.415C404.82 205.392 405.148 205.064 405.148 204.659V202.275C405.148 201.87 404.82 201.543 404.415 201.543H402.032C401.628 201.543 401.299 201.87 401.299 202.275V204.659C401.299 205.064 401.628 205.392 402.032 205.392Z" fill="#6C83DC"/>
<path d="M392.873 205.392H395.256C395.662 205.392 395.989 205.064 395.989 204.659V202.275C395.989 201.87 395.662 201.543 395.256 201.543H392.873C392.469 201.543 392.141 201.87 392.141 202.275V204.659C392.141 205.064 392.469 205.392 392.873 205.392Z" fill="#6C83DC"/>
<path d="M383.715 205.392H386.099C386.504 205.392 386.832 205.064 386.832 204.659V202.275C386.832 201.87 386.504 201.543 386.099 201.543H383.715C383.311 201.543 382.982 201.87 382.982 202.275V204.659C382.982 205.064 383.311 205.392 383.715 205.392Z" fill="#6C83DC"/>
<path d="M411.19 213.277H413.573C413.978 213.277 414.306 212.949 414.306 212.545V210.161C414.306 209.756 413.978 209.429 413.573 209.429H411.19C410.785 209.429 410.457 209.756 410.457 210.161V212.545C410.457 212.949 410.785 213.277 411.19 213.277Z" fill="#6C83DC"/>
<path d="M402.032 213.277H404.415C404.82 213.277 405.148 212.949 405.148 212.545V210.161C405.148 209.756 404.82 209.429 404.415 209.429H402.032C401.628 209.429 401.299 209.756 401.299 210.161V212.545C401.299 212.949 401.628 213.277 402.032 213.277Z" fill="#6C83DC"/>
<path d="M392.873 213.277H395.256C395.662 213.277 395.989 212.949 395.989 212.545V210.161C395.989 209.756 395.662 209.429 395.256 209.429H392.873C392.469 209.429 392.141 209.756 392.141 210.161V212.545C392.141 212.949 392.469 213.277 392.873 213.277Z" fill="#6C83DC"/>
<path d="M383.715 213.277H386.099C386.504 213.277 386.832 212.949 386.832 212.545V210.161C386.832 209.756 386.504 209.429 386.099 209.429H383.715C383.311 209.429 382.982 209.756 382.982 210.161V212.545C382.982 212.949 383.311 213.277 383.715 213.277Z" fill="#6C83DC"/>
<path d="M411.19 221.163H413.573C413.978 221.163 414.306 220.835 414.306 220.43V218.046C414.306 217.642 413.978 217.314 413.573 217.314H411.19C410.785 217.314 410.457 217.642 410.457 218.046V220.43C410.457 220.835 410.785 221.163 411.19 221.163Z" fill="#6C83DC"/>
<path d="M402.032 221.163H404.415C404.82 221.163 405.148 220.835 405.148 220.43V218.046C405.148 217.642 404.82 217.314 404.415 217.314H402.032C401.628 217.314 401.299 217.642 401.299 218.046V220.43C401.299 220.835 401.628 221.163 402.032 221.163Z" fill="#6C83DC"/>
<path d="M392.873 221.163H395.256C395.662 221.163 395.989 220.835 395.989 220.43V218.046C395.989 217.642 395.662 217.314 395.256 217.314H392.873C392.469 217.314 392.141 217.642 392.141 218.046V220.43C392.141 220.835 392.469 221.163 392.873 221.163Z" fill="#6C83DC"/>
<path d="M548.354 226.853C548.354 248.176 531.069 265.461 509.747 265.461C488.425 265.461 471.141 248.176 471.141 226.853C471.141 205.531 488.425 188.246 509.747 188.246C531.069 188.246 548.354 205.531 548.354 226.853Z" fill="#FF7571"/>
<path d="M511.965 249.383V245.772C511.965 245.1 511.421 244.556 510.75 244.556H508.747C508.075 244.556 507.531 245.1 507.531 245.772V249.383C496.799 248.34 488.263 239.803 487.219 229.071H490.83C491.501 229.071 492.046 228.526 492.046 227.855V225.852C492.046 225.18 491.501 224.636 490.83 224.636H487.219C488.263 213.905 496.799 205.368 507.531 204.324V207.936C507.531 208.607 508.075 209.151 508.747 209.151H510.75C511.421 209.151 511.965 208.607 511.965 207.936V204.324C522.698 205.368 531.234 213.905 532.278 224.636H528.667C527.996 224.636 527.451 225.18 527.451 225.852V227.855C527.451 228.526 527.996 229.071 528.667 229.071H532.278C531.234 239.803 522.698 248.34 511.965 249.383ZM509.749 200.411C495.144 200.411 483.305 212.249 483.305 226.854C483.305 241.458 495.144 253.297 509.749 253.297C524.352 253.297 536.192 241.458 536.192 226.854C536.192 212.249 524.352 200.411 509.749 200.411Z" fill="#CC3834"/>
<path d="M497.006 230C497.585 229.412 498.145 228.843 498.686 228.292C499.237 227.741 499.727 227.205 500.156 226.682C500.585 226.159 500.926 225.651 501.178 225.156C501.439 224.661 501.57 224.185 501.57 223.728C501.57 223.317 501.486 222.986 501.318 222.734C501.15 222.473 500.931 222.281 500.66 222.16C500.399 222.039 500.123 221.978 499.834 221.978C499.423 221.978 499.092 222.062 498.84 222.23C498.597 222.398 498.42 222.603 498.308 222.846C498.196 223.089 498.14 223.322 498.14 223.546C498.14 223.863 498.187 224.143 498.28 224.386C498.373 224.629 498.509 224.839 498.686 225.016L497.86 225.772C497.636 225.641 497.445 225.45 497.286 225.198C497.137 224.937 497.02 224.661 496.936 224.372C496.861 224.083 496.824 223.817 496.824 223.574C496.824 223.07 496.945 222.599 497.188 222.16C497.44 221.721 497.804 221.367 498.28 221.096C498.765 220.816 499.358 220.676 500.058 220.676C500.637 220.676 501.145 220.811 501.584 221.082C502.023 221.353 502.363 221.712 502.606 222.16C502.849 222.599 502.97 223.084 502.97 223.616C502.97 224.213 502.821 224.797 502.522 225.366C502.223 225.935 501.841 226.495 501.374 227.046C500.917 227.597 500.445 228.143 499.96 228.684H503.278V230H497.006ZM503.951 227.774V227.76L509.579 220.676H509.593V226.724H510.797V227.774H509.593V230H508.235V227.774H503.951ZM508.235 226.724V223.854L506.009 226.724H508.235ZM516.665 219.556C516.002 221.348 515.344 223.135 514.691 224.918C514.038 226.701 513.38 228.483 512.717 230.266H511.527C512.19 228.483 512.848 226.701 513.501 224.918C514.154 223.135 514.812 221.348 515.475 219.556H516.665ZM523.144 220.788L519.448 230H517.922L521.156 222.09H517.11V220.788H523.144Z" fill="#CC3834"/>
<path d="M269.338 379.77C270.599 386.105 264.734 391.736 262.898 392.792C261.061 393.847 248.739 398.774 241.336 398.95C233.934 399.126 224.164 383.466 228.162 381.707C232.161 379.947 259.399 378.012 262.39 378.012C265.381 378.012 269.338 379.77 269.338 379.77Z" fill="#FFC6C8"/>
<path d="M249.926 376.429C246.695 395.431 239.021 410.212 236.626 410.476C234.232 410.739 211.228 402.822 204.887 399.918C198.546 397.015 206.834 352.416 210.781 353.202C214.729 353.987 223.381 362.556 230.526 366.664C237.671 370.773 249.926 376.429 249.926 376.429Z" fill="#F9CA45"/>
<path d="M212.036 384.329C214.254 388.132 232.534 397.771 242.602 401.285C240.114 406.896 237.769 410.349 236.627 410.475C234.577 410.701 217.419 404.929 208.549 401.442C209.292 394.381 212.036 384.329 212.036 384.329Z" fill="#C7A237"/>
<path d="M269.366 378.893C269.547 386.432 262.757 387.515 254.628 385.579C246.499 383.643 233.227 365.345 227.319 357.075C221.41 348.805 210.385 334.069 208.106 332.75C205.827 331.43 200.598 330.73 196.125 323.294C191.652 315.859 197.536 300.287 199.65 298.44C201.764 296.592 219.878 302.76 221.983 305.879C224.087 308.996 220.492 325.756 221.13 327.867C221.768 329.978 237.184 347.222 243.916 351.445C250.646 355.667 269.235 373.439 269.366 378.893Z" fill="#FFC6C8"/>
<path d="M208.928 310.881C206.797 309.826 206.283 305.03 207.622 305.876C208.963 306.721 211.307 306.703 214.479 306.658C217.651 306.614 218.952 306.34 218.952 306.34C218.952 306.34 219.276 308.418 219.26 310.12C219.26 310.12 211.059 311.937 208.928 310.881Z" fill="#FF8B8C"/>
<path d="M194.821 311.971C196.113 309.569 197.11 307.748 197.11 307.748L209.571 319.742C212.978 316.787 217.147 314.091 217.147 314.091L218.244 316.046C216.228 319.458 214.472 326.672 214.432 328.431C214.432 328.431 212.518 330.543 211.45 330.719C211.45 330.719 224.781 351.833 233.351 362.214C241.87 372.534 247.705 381.46 251.723 384.329C243.619 379.656 232.566 364.422 227.316 357.075C221.408 348.805 210.384 334.069 208.104 332.75C205.826 331.43 200.597 330.73 196.125 323.294C194.35 320.345 194.217 316.117 194.821 311.971Z" fill="#FF8B8C"/>
<path d="M220.758 313.174C220.606 314.405 208.224 325.139 206.927 326.37C206.83 326.463 205.863 326.604 205.597 326.37C202.303 323.476 187.923 297.364 187.667 296.422C187.426 295.542 196.973 286.56 199.888 284.157C200.285 283.829 201.921 284.028 202.189 284.425C205.13 288.781 220.953 311.585 220.758 313.174Z" fill="#050233"/>
<path d="M219.427 313.174C219.276 314.405 206.893 325.139 205.597 326.371C204.3 327.602 186.613 297.44 186.336 296.422C186.096 295.542 196.725 286.706 199.639 284.303C200.036 283.976 200.59 284.028 200.859 284.426C203.8 288.781 219.622 311.585 219.427 313.174Z" fill="#211E88"/>
<path d="M217.343 311.409C217.202 312.56 205.618 322.602 204.405 323.755C203.193 324.907 186.646 296.69 186.387 295.737C186.162 294.915 196.105 286.648 198.832 284.4C199.203 284.094 199.722 284.142 199.972 284.514C202.725 288.589 217.526 309.922 217.343 311.409Z" fill="#00B1FA"/>
<path d="M209.916 296.692C207.998 295.536 205.644 291.621 205.431 290.301C205.22 288.982 205.351 287.794 206.381 287.53C207.413 287.267 210.586 291.401 212.168 292.633C213.75 293.865 215.676 296.416 214.891 298.132C214.107 299.847 210.592 299.187 210.215 298.924C209.839 298.659 209.916 296.692 209.916 296.692Z" fill="#FFC6C8"/>
<path d="M205.789 287.877C205.181 289.378 209.142 295.398 212.616 297.132L211.325 298.607C211.325 298.607 210.739 298.478 209.986 298.3C209.882 297.632 209.917 296.692 209.917 296.692C207.999 295.536 205.645 291.621 205.432 290.302C205.272 289.301 205.313 288.381 205.789 287.877Z" fill="#FF8B8C"/>
<path d="M214.374 302.776C211.074 301.013 208.487 301.21 206.692 300.485C204.897 299.759 204.571 296.988 205.792 296.526C207.014 296.064 214.449 297.252 216.366 298.11C218.283 298.967 219.199 302.919 219.199 302.919L214.374 302.776Z" fill="#FFC6C8"/>
<path d="M212.93 300.72C214.797 301.072 215.438 300.72 215.438 300.72C215.384 301.449 216.073 301.812 216.848 302.849L214.374 302.776C211.076 301.013 208.488 301.21 206.693 300.485C205.874 300.154 205.378 299.397 205.178 298.628C205.977 300.148 211.074 300.37 212.93 300.72Z" fill="#FF8B8C"/>
<path d="M221.981 305.878C220.221 308.313 211.588 307.258 209.847 306.994C208.107 306.729 207.015 305.631 207.193 304.523C207.551 302.287 218.959 302.683 219.901 303.035C220.843 303.387 221.981 305.878 221.981 305.878Z" fill="#FFC6C8"/>
<path d="M207.256 305.061C208.435 306.233 211.271 306.901 214.365 307.151C217.045 307.367 218.585 307.263 218.941 307.232C215.687 307.751 211.071 307.179 209.849 306.994C208.395 306.774 207.443 305.965 207.256 305.061Z" fill="#FF8B8C"/>
<path d="M181.58 340.007C199.904 349.332 202.91 348.971 210.782 353.201C218.651 357.431 216.309 401.942 215.81 408.804C215.31 415.666 213.414 442.938 214.459 450.328C215.505 457.719 219.578 485.167 221.383 489.389C223.186 493.612 226.626 500.739 221.305 504.961C215.983 509.184 204.723 512.088 180.275 510.504C155.827 508.92 129.473 493.877 128.307 491.765C127.141 489.654 139.994 450.856 140.532 443.466C141.07 436.076 142.529 430.534 143.307 427.103C144.084 423.671 136.306 407.572 135.064 397.279C133.821 386.986 122.638 358.591 124.759 353.39C126.88 348.189 146.357 342.394 159.621 335.779C172.884 329.165 181.58 340.007 181.58 340.007Z" fill="#F9CA45"/>
<path d="M199.747 351.549C196.73 361.464 190.589 370.403 182.415 376.775C172.491 374.341 162.401 369.969 154.275 363.774C163.356 370.462 173.261 376.09 183.865 379.931C192.82 372.596 198.135 363.012 199.747 351.549Z" fill="#C7A237"/>
<path d="M196.006 346.83C192.486 345.328 187.964 343.257 181.579 340.008C181.579 340.008 172.884 329.165 159.621 335.78C155.018 338.075 149.669 340.271 144.555 342.378C152.456 355.82 165.258 366.335 180.035 371.336C187.827 365.199 193.431 356.407 196.006 346.83Z" fill="#FFC6C8"/>
<path opacity="0.2" d="M128.309 491.765C127.143 489.653 139.996 450.856 140.534 443.466C141.071 436.076 142.53 430.533 143.308 427.103C144.086 423.671 136.308 407.572 135.065 397.279C134.85 395.49 134.329 393.147 133.635 390.482L141.897 384.328C146.743 397.844 149.764 421.597 154.357 427.403C158.949 433.21 170.389 435.585 170.389 435.585C170.389 435.585 159.089 438.224 154.163 437.168C154.163 437.168 148.902 458.019 148.842 468.312C148.783 478.605 149.739 494.176 149.861 496.289C149.906 497.076 149.732 499.825 149.496 502.957C137.656 498.271 128.967 492.957 128.309 491.765Z" fill="black"/>
<path d="M161.702 317.03C161.513 328.044 160.786 335.609 158.346 337.721C158.346 337.721 162.543 355.996 179.298 354.436C184.968 353.908 184.427 344.407 181.581 340.008L183.267 326.5L161.702 317.03Z" fill="#FFC6C8"/>
<path d="M159.621 335.78C161.055 332.401 161.55 325.819 161.701 317.029L183.267 326.499L182.185 335.161C178.363 336.876 159.621 335.78 159.621 335.78Z" fill="#FF8B8C"/>
<path d="M102.315 406.103C98.6007 411.205 93.6323 423.873 95.4969 429.681C97.3616 435.487 116.594 461.352 125.39 471.029C134.188 480.706 136.183 482.29 137.713 485.457C139.242 488.624 146.736 501.688 148.704 503.668C150.671 505.646 154.215 505.912 154.215 505.912C154.215 505.912 156.864 508.814 161.938 508.286C161.938 508.286 166.358 511.322 169.863 512.113C169.863 512.113 171.02 514.354 172.193 514.553C173.366 514.752 174.858 512.378 172.697 507.627C170.536 502.875 166.985 500.896 166.414 497.862C165.843 494.826 163.096 488.634 163.096 488.634C163.096 488.634 169.264 494.958 173.062 495.354C176.861 495.75 177.371 493.507 175.286 491.659C173.202 489.812 170.5 487.041 167.988 483.477C165.476 479.914 162.35 477.539 157.516 476.879C152.681 476.22 149.289 475.692 148.036 474.768C146.784 473.844 140.462 464.871 136.142 455.193C131.822 445.515 127.952 433.149 116.973 422.29L121.811 413.844L102.315 406.103Z" fill="#FFC6C8"/>
<path d="M169.701 511.509C168.765 508.833 167.045 506.55 165.152 504.519L164.401 503.78C164.18 503.55 163.789 503.26 163.703 503.124C163.324 502.642 162.997 502.006 162.633 501.434C161.936 500.247 161.259 499.038 160.488 497.872C160.856 499.243 161.349 500.551 161.901 501.841C162.173 502.498 162.468 503.107 162.882 503.756C163.202 504.181 163.409 504.27 163.656 504.546L164.362 505.275C165.312 506.249 166.212 507.273 167.12 508.294C168.021 509.324 168.863 510.394 169.701 511.509Z" fill="#FF8B8C"/>
<path d="M161.733 507.373C161.006 505.952 160.143 504.72 159.373 503.426C158.567 502.148 157.852 500.866 157.118 499.456C157.039 501.117 157.651 502.681 158.46 504.024C159.305 505.358 160.381 506.532 161.733 507.373Z" fill="#FF8B8C"/>
<path d="M157.871 507.936C155.477 507.244 154.216 505.911 154.216 505.911C154.216 505.911 150.671 505.646 148.704 503.668C147.9 502.858 146.17 500.191 144.305 497.111C144.345 497.16 146.556 499.562 148.146 501.545C150.385 504.337 153.598 503.413 153.598 503.413L153.169 500.84C153.169 500.84 155.306 506.682 157.871 507.936Z" fill="#FF8B8C"/>
<path d="M95.415 423.228C95.5195 425.635 95.5481 427.55 99.1203 433.869C103.141 440.981 127.301 470.951 132.572 476.493C137.842 482.035 137.686 482.388 140.806 491.145C139.397 488.669 138.222 486.511 137.712 485.456C136.184 482.289 134.187 480.705 125.39 471.027C116.593 461.351 97.361 435.486 95.4964 429.679C94.9549 427.992 95.002 425.719 95.415 423.228Z" fill="#FF8B8C"/>
<path d="M114.353 416.302L112.391 419.573C112.391 419.573 115.046 420.291 116.973 422.289L120.803 415.791L114.353 416.302Z" fill="#FF8B8C"/>
<path d="M137.508 398.411C142.553 388.491 144.573 372.382 140.019 363.904C135.465 355.425 126.869 352.372 124.76 353.39C122.651 354.408 116.94 367.634 111.578 373.739C106.216 379.844 91.5736 396.97 91.1301 398.411C90.6857 399.853 101.713 411.487 122.454 420.031C124.923 421.049 137.508 398.411 137.508 398.411Z" fill="#F9CA45"/>
<g opacity="0.2">
<path d="M122.124 406.103L118.815 412.888C118.815 412.888 135.114 396.548 141.881 384.355C141.061 389.441 139.535 394.426 137.507 398.411C137.507 398.411 124.923 421.049 122.453 420.031C118.904 418.569 115.663 417.015 112.691 415.439L122.124 406.103Z" fill="black"/>
</g>
<path d="M184.513 318.016C183.392 313.475 183.416 308.832 183.146 304.189C182.943 300.718 182.767 297.54 179.616 295.464C177.313 293.947 174.426 293.648 171.717 293.992C164.435 294.916 162.869 302.011 163.426 308.73C163.853 313.872 165.862 318.81 167.857 323.54C165.179 323.421 161.523 322.018 159.924 319.789C160.642 322.722 162.003 325.416 164.129 327.491C156.369 327.357 149.166 322.279 145.055 315.459C140.946 308.641 139.643 300.315 140.081 292.289C140.6 282.764 143.57 273.217 149.461 265.884C161.31 251.134 184.139 249.415 198.04 262.09C202.819 266.447 206.286 272.288 208.02 278.623C210.299 286.95 210.252 295.884 208.476 304.308C207.741 307.796 207.404 310.815 207.058 314.307C206.951 315.391 205.638 327.963 206.397 327.917C201.495 328.214 195.863 327.225 192.543 323.478C194.031 326.051 195.316 328.53 196.805 331.104C190.615 330.074 186.066 324.307 184.513 318.016Z" fill="#A072AE"/>
<path d="M159.078 300.883C156.888 299.589 154.256 298.887 152.225 300.946C149.233 303.982 153.484 318.101 159.936 314.67C159.936 314.67 169.279 327.735 176.135 331.43C182.993 335.125 187.877 333.278 190.445 330.638C193.013 327.999 201.769 317.173 203.345 305.696C203.907 301.606 203.305 293.556 203.43 291.84C203.814 286.562 205.814 282.229 201.65 278.086C197.444 273.902 191.618 271.37 185.688 271.16C178.219 270.897 170.754 274.254 165.807 279.856C160.343 286.047 159.396 293.038 159.078 300.883Z" fill="#FFC6C8"/>
<path d="M153.285 304.805C153.843 302.218 156.05 301.709 157.691 303.511C159.373 305.359 159.656 311.211 159.224 312.073C158.791 312.935 155.901 312.874 155.353 311.087C154.806 309.301 156.489 308.181 158.113 308.711C158.113 308.711 158.568 306.103 157.239 304.424C155.911 302.745 154.528 303.389 154.189 303.819C153.849 304.251 153.285 304.805 153.285 304.805Z" fill="#FF8B8C"/>
<path d="M171.145 293.362C171.769 292.781 172.433 292.24 173.127 291.727C173.827 291.223 174.573 290.769 175.365 290.399C176.152 290.03 176.975 289.632 177.846 289.564C178.709 289.488 179.576 289.558 180.366 289.897L180.355 290.016C179.933 290.185 179.531 290.293 179.135 290.408L177.972 290.729C177.216 290.952 176.432 291.019 175.664 291.275C174.902 291.529 174.149 291.854 173.409 292.226C172.662 292.59 171.94 293.023 171.211 293.455L171.145 293.362Z" fill="#471052"/>
<path d="M200.333 290.399C199.626 290.025 198.878 289.753 198.1 289.589C197.327 289.415 196.535 289.328 195.74 289.308C194.941 289.291 194.147 289.455 193.358 289.449C192.563 289.451 191.764 289.475 190.89 289.388L190.865 289.274C191.613 288.732 192.464 288.439 193.323 288.272C194.189 288.097 195.056 288.24 195.891 288.365C196.732 288.488 197.55 288.705 198.317 289.024C199.079 289.353 199.803 289.761 200.406 290.301L200.333 290.399Z" fill="#471052"/>
<path d="M178.981 298.002C178.951 296.886 178.389 296.034 177.725 296.098C177.061 296.164 176.546 297.122 176.575 298.238C176.605 299.355 177.167 300.207 177.831 300.141C178.496 300.076 179.009 299.118 178.981 298.002Z" fill="#471052"/>
<path d="M196.608 296.591C196.579 295.475 196.115 294.612 195.572 294.666C195.029 294.72 194.613 295.668 194.642 296.784C194.671 297.9 195.136 298.762 195.678 298.709C196.221 298.655 196.638 297.707 196.608 296.591Z" fill="#471052"/>
<path d="M184.5 308.851C186.028 309.914 188.281 309.891 189.944 308.796C189.755 309.656 189.37 310.494 188.534 310.8C187.697 311.105 186.773 311.015 186.003 310.663C185.235 310.31 184.986 309.536 184.5 308.851Z" fill="#FF8B8C"/>
<path d="M178.383 315.4C182.064 315.459 190.915 314.78 193.801 314.37C192.663 318.099 189.679 321.783 185.511 321.785C181.76 321.788 179.282 318.705 178.383 315.4Z" fill="#C47E75"/>
<path d="M181.762 320.567C183.225 320.116 184.715 320.348 185.314 320.533C185.314 320.533 187.261 319.171 190.091 320.067C188.803 321.105 187.272 321.784 185.513 321.785C184.065 321.786 182.812 321.32 181.762 320.567Z" fill="#FF8485"/>
<path d="M191.303 317.49C187.576 318.652 183.508 318.317 179.999 317.052C179.975 316.502 179.933 315.947 179.891 315.392C183.529 315.315 189.419 314.875 192.573 314.523C192.301 315.554 191.892 316.562 191.303 317.49Z" fill="white"/>
<path d="M162.758 288.737C168.763 288.481 174.72 287.158 180.268 284.849C181.324 282.406 181.36 280.239 181.518 277.584C183.027 280.351 183.924 283.449 184.08 286.598C187.576 286.371 191.089 286.184 194.586 285.957C195.565 283.186 195.684 280.333 195.529 277.398C196.711 280.154 197.304 283.626 197.707 286.597C199.818 285.847 202.492 286.942 204.698 287.337C207.43 281.249 207.251 270.221 201.47 265.605C195.841 261.108 186.063 259.885 179.182 260.881C164.547 262.999 153.044 275.151 153.953 290.291C154.471 298.927 158.804 307.095 165.017 313.117C161.322 305.748 160.59 296.688 162.758 288.737Z" fill="#A072AE"/>
<path d="M596 195C586.61 195 579 202.61 579 212C579 217.067 581.215 221.618 584.736 224.737C587.741 227.387 591.683 229 596 229C600.324 229 604.266 227.387 607.264 224.73C610.785 221.618 613 217.067 613 212C613 202.61 605.39 195 596 195Z" fill="#CBD5FC"/>
<path d="M605.932 223.351C605.062 222.702 603.482 221.624 601.762 220.828C600.042 220.038 599.031 218.184 599.306 216.317C599.306 216.29 599.312 216.263 599.319 216.23C599.319 216.23 603.234 213.579 602.692 210.996C602.692 210.996 602.813 211.002 602.993 210.989C604.72 210.828 604.827 208.258 603.121 207.984C603.107 207.984 603.087 207.977 603.074 207.977L603.02 207.696C603.542 205.869 604.814 200.334 600.966 200.869C600.966 200.869 598.201 196.298 592.358 198.5C586.509 200.695 588.035 205.936 588.035 205.936L588.758 208.024C587.185 208.412 587.332 210.842 589.005 210.996C589.186 211.009 589.313 211.002 589.313 211.002C588.764 213.586 592.68 216.236 592.68 216.236C592.686 216.27 592.686 216.296 592.693 216.323C592.961 218.191 591.95 220.045 590.237 220.834C588.51 221.631 586.937 222.715 586.067 223.357C585.545 223.739 585.083 224.201 584.729 224.743C587.74 227.387 591.682 229 595.999 229C600.323 229 604.265 227.387 607.264 224.73C606.916 224.194 606.454 223.732 605.932 223.351Z" fill="#819FDE"/>
<path d="M388.5 20C375.519 20 365 30.5195 365 43.5C365 50.5037 368.062 56.7951 372.929 61.1065C377.083 64.7703 382.532 67 388.5 67C394.477 67 399.926 64.7703 404.071 61.0972C408.938 56.7951 412 50.5037 412 43.5C412 30.5195 401.481 20 388.5 20Z" fill="#CBD5FC"/>
<path d="M402.23 59.1912C401.027 58.2938 398.844 56.8042 396.466 55.7032C394.088 54.6115 392.691 52.0487 393.071 49.4674C393.071 49.4304 393.08 49.3934 393.089 49.3471C393.089 49.3471 398.502 45.6833 397.752 42.1121C397.752 42.1121 397.919 42.1213 398.169 42.1028C400.556 41.8808 400.704 38.328 398.344 37.9487C398.326 37.9487 398.298 37.9394 398.28 37.9394L398.206 37.5509C398.927 35.0251 400.685 27.3737 395.365 28.1139C395.365 28.1139 391.544 21.7948 383.467 24.8387C375.381 27.8733 377.49 35.1176 377.49 35.1176L378.49 38.0042C376.315 38.5408 376.519 41.8993 378.832 42.1121C379.082 42.1306 379.258 42.1213 379.258 42.1213C378.499 45.6926 383.911 49.3564 383.911 49.3564C383.921 49.4026 383.921 49.4396 383.93 49.4767C384.3 52.058 382.903 54.6207 380.534 55.7125C378.147 56.8135 375.973 58.3123 374.77 59.2005C374.049 59.7278 373.41 60.3662 372.92 61.1156C377.083 64.7702 382.533 66.9999 388.5 66.9999C394.477 66.9999 399.926 64.7702 404.071 61.0971C403.59 60.357 402.952 59.7186 402.23 59.1912Z" fill="#819FDE"/>
<path d="M71 184C76.5236 184 81 188.476 81 194C81 196.98 79.6969 199.657 77.626 201.492C75.8583 203.051 73.5394 204 71 204C68.4567 204 66.1378 203.051 64.374 201.488C62.3032 199.657 61 196.98 61 194C61 188.476 65.4764 184 71 184Z" fill="#CBD5FC"/>
<path d="M65.1584 200.677C65.6702 200.295 66.5994 199.661 67.6112 199.193C68.623 198.728 69.2175 197.638 69.0561 196.539C69.0561 196.523 69.0521 196.508 69.0482 196.488C69.0482 196.488 66.745 194.929 67.0639 193.409C67.0639 193.409 66.9931 193.413 66.8868 193.405C65.871 193.311 65.808 191.799 66.812 191.638C66.8198 191.638 66.8316 191.634 66.8395 191.634L66.871 191.468C66.5639 190.393 65.8159 187.138 68.0797 187.452C68.0797 187.452 69.7057 184.763 73.1427 186.059C76.5836 187.35 75.686 190.433 75.686 190.433L75.2608 191.661C76.186 191.889 76.0994 193.319 75.1151 193.409C75.0088 193.417 74.934 193.413 74.934 193.413C75.2568 194.933 72.9537 196.492 72.9537 196.492C72.9498 196.512 72.9498 196.527 72.9458 196.543C72.7883 197.641 73.3828 198.732 74.3907 199.197C75.4065 199.665 76.3316 200.303 76.8435 200.681C77.1505 200.905 77.4222 201.177 77.6309 201.496C75.8592 203.051 73.5403 204 71.0009 204C68.4576 204 66.1387 203.051 64.375 201.488C64.5797 201.173 64.8513 200.901 65.1584 200.677Z" fill="#819FDE"/>
<path d="M179.5 531C168.177 531 159 540.177 159 551.5C159 557.61 161.671 563.098 165.917 566.859C169.541 570.055 174.294 572 179.5 572C184.714 572 189.468 570.055 193.083 566.851C197.329 563.098 200 557.61 200 551.5C200 540.177 190.823 531 179.5 531Z" fill="#CBD5FC"/>
<path d="M191.477 565.188C190.427 564.405 188.523 563.106 186.449 562.146C184.374 561.193 183.156 558.958 183.487 556.706C183.487 556.673 183.495 556.641 183.503 556.601C183.503 556.601 188.224 553.405 187.57 550.289C187.57 550.289 187.716 550.298 187.934 550.281C190.016 550.088 190.145 546.988 188.087 546.658C188.071 546.658 188.047 546.649 188.03 546.649L187.966 546.31C188.595 544.107 190.129 537.433 185.488 538.078C185.488 538.078 182.155 532.566 175.109 535.221C168.055 537.868 169.895 544.188 169.895 544.188L170.767 546.706C168.87 547.174 169.048 550.104 171.065 550.289C171.283 550.306 171.437 550.298 171.437 550.298C170.775 553.413 175.496 556.609 175.496 556.609C175.504 556.649 175.504 556.682 175.513 556.714C175.835 558.966 174.617 561.201 172.551 562.154C170.468 563.114 168.572 564.422 167.522 565.196C166.893 565.656 166.336 566.213 165.908 566.867C169.54 570.055 174.294 572 179.5 572C184.713 572 189.467 570.055 193.083 566.851C192.663 566.205 192.106 565.648 191.477 565.188Z" fill="#819FDE"/>
<circle opacity="0.4" cx="382" cy="341" r="297.5" stroke="#7C80A6"/>
<circle opacity="0.4" cx="381.5" cy="341.5" r="287" stroke="#7C80A6"/>
<circle cx="674.5" cy="397.5" r="5.5" fill="#819FDE"/>
<circle cx="486.5" cy="572.5" r="5.5" fill="#819FDE"/>
<circle opacity="0.75" cx="382" cy="341" r="252.5" stroke="#CBD5FC"/>
<circle opacity="0.75" cx="388.5" cy="341.5" r="199" stroke="#CBD5FC"/>
<circle cx="635" cy="363" r="9" fill="#819FDE"/>
<circle cx="238" cy="97" r="9" fill="#819FDE"/>
<circle cx="398" cy="683" r="9" fill="#819FDE"/>
<circle cx="40" cy="332" r="9" fill="#819FDE"/>
<path d="M365 567H304V597.806H347.471L343.966 610L365 597.806V567Z" fill="#819FDE"/>
<path d="M573 115H551V127.179H566.678L565.414 132L573 127.179V115Z" fill="#819FDE"/>
<circle cx="381.5" cy="341.5" r="341" stroke="#CBD5FC"/>
<circle cx="283" cy="172" r="3" fill="#819FDE"/>
</svg>
