<svg width="16" height="16" viewBox="0 0 16 16" fill="none" xmlns="http://www.w3.org/2000/svg">
<path d="M13.4408 3.07353C12.733 2.36554 11.7946 1.93509 10.7963 1.86046C9.79799 1.78583 8.80603 2.07198 8.00083 2.66687C7.15261 2.03596 6.09683 1.74988 5.04611 1.86623C3.9954 1.98258 3.02779 2.49272 2.33815 3.29392C1.64851 4.09513 1.28805 5.12788 1.32937 6.18421C1.37069 7.24054 1.81071 8.24198 2.56083 8.98687L7.5275 13.9535C7.58948 14.016 7.66321 14.0656 7.74445 14.0995C7.82569 14.1333 7.91283 14.1507 8.00083 14.1507C8.08884 14.1507 8.17598 14.1333 8.25722 14.0995C8.33846 14.0656 8.41219 14.016 8.47417 13.9535L13.4408 8.98687C13.8293 8.59868 14.1374 8.13776 14.3476 7.63045C14.5579 7.12313 14.6661 6.57935 14.6661 6.0302C14.6661 5.48105 14.5579 4.93727 14.3476 4.42996C14.1374 3.92264 13.8293 3.46172 13.4408 3.07353ZM12.5008 8.04687L8.00083 12.5402L3.50083 8.04687C3.10428 7.64867 2.83415 7.14223 2.72432 6.59109C2.61449 6.03996 2.66986 5.46866 2.88347 4.94886C3.09708 4.42907 3.45943 3.98393 3.92507 3.66928C4.3907 3.35464 4.93888 3.18449 5.50083 3.1802C6.25158 3.18204 6.9709 3.48176 7.50083 4.01353C7.56281 4.07602 7.63654 4.12562 7.71778 4.15946C7.79902 4.19331 7.88616 4.21073 7.97417 4.21073C8.06218 4.21073 8.14931 4.19331 8.23055 4.15946C8.31179 4.12562 8.38553 4.07602 8.4475 4.01353C8.99305 3.54079 9.69783 3.29296 10.4192 3.32022C11.1406 3.34747 11.8246 3.64777 12.333 4.16033C12.8413 4.67289 13.1359 5.35943 13.1572 6.08099C13.1784 6.80256 12.9248 7.50526 12.4475 8.04687H12.5008Z" fill="white"/>
</svg>
